<?xml version="1.0" standalone="no"?>
<!DOCTYPE svg PUBLIC "-//W3C//DTD SVG 20010904//EN"
 "http://www.w3.org/TR/2001/REC-SVG-20010904/DTD/svg10.dtd">
<svg version="1.0" xmlns="http://www.w3.org/2000/svg"
 width="275.000000pt" height="275.000000pt" viewBox="0 0 275.000000 275.000000"
 preserveAspectRatio="xMidYMid meet">
<metadata>
Created by potrace 1.11, written by Peter Selinger 2001-2013
</metadata>
<g transform="translate(0.000000,275.000000) scale(0.100000,-0.100000)"
fill="#000000" stroke="none">
<path d="M1175 2735 c-212 -33 -413 -115 -595 -244 -81 -57 -244 -217 -298
-292 -132 -183 -229 -417 -258 -624 -11 -73 -11 -323 -2 -385 4 -25 10 -61 13
-80 26 -156 120 -375 230 -535 68 -98 244 -270 345 -337 76 -50 180 -104 293
-153 50 -21 212 -62 285 -72 72 -9 322 -10 382 -1 291 45 559 178 759 377 231
229 361 487 405 806 63 456 -122 936 -474 1230 -196 163 -416 265 -670 310
-70 12 -336 12 -415 0z"/>
</g>
</svg>
